<svg width="122" height="32" viewBox="0 0 122 32" fill="none" xmlns="http://www.w3.org/2000/svg">
<path d="M56.344 12.2159C56.584 11.9279 56.88 11.7839 57.232 11.7839C57.552 11.7839 57.824 11.8959 58.048 12.1199C58.2719 12.3439 58.384 12.6159 58.384 12.9359C58.384 13.2239 58.304 13.4559 58.144 13.6319L58.12 13.6559L52.312 21.4799C52.024 21.8479 51.656 22.1519 51.208 22.3919C50.776 22.6159 50.304 22.7279 49.792 22.7279C49.312 22.7279 48.856 22.6239 48.424 22.4159C48.008 22.2079 47.656 21.9199 47.368 21.5519L41.536 13.7519C41.44 13.6399 41.36 13.5199 41.296 13.3919C41.232 13.2479 41.2 13.0959 41.2 12.9359C41.2 12.6159 41.312 12.3439 41.536 12.1199C41.76 11.8959 42.032 11.7839 42.352 11.7839C42.736 11.7839 43.04 11.9359 43.264 12.2399L48.856 19.7039C48.968 19.8319 49.104 19.9759 49.264 20.1359C49.44 20.2799 49.616 20.3519 49.792 20.3519C49.968 20.3519 50.136 20.2799 50.296 20.1359C50.472 19.9759 50.608 19.8319 50.704 19.7039L56.344 12.2159Z" fill="#673A58"/>
<path d="M78.4577 11.7839C78.7777 11.7839 79.0497 11.8959 79.2737 12.1199C79.4977 12.3439 79.6097 12.6159 79.6097 12.9359C79.6097 13.2399 79.5057 13.5039 79.2977 13.7279C79.0897 13.9359 78.8417 14.0559 78.5537 14.0879H73.7297C73.2497 14.1199 72.8497 14.2399 72.5297 14.4479C72.2257 14.6399 71.9857 14.8799 71.8097 15.1679C71.6337 15.4559 71.5137 15.7679 71.4497 16.1039C71.3857 16.4399 71.3537 16.7439 71.3537 17.0159V21.0959C71.3537 21.4159 71.2417 21.6879 71.0177 21.9119C70.7937 22.1359 70.5217 22.2479 70.2017 22.2479C69.8817 22.2479 69.6097 22.1359 69.3857 21.9119C69.1617 21.6879 69.0497 21.4159 69.0497 21.0959V17.0159C69.0497 16.5199 69.1137 16.0239 69.2417 15.5279C69.3697 15.0159 69.5617 14.5359 69.8177 14.0879H61.9457C61.6257 14.0879 61.3537 13.9759 61.1297 13.7519C60.9057 13.5279 60.7937 13.2559 60.7937 12.9359C60.7937 12.6159 60.9057 12.3439 61.1297 12.1199C61.3537 11.8959 61.6257 11.7839 61.9457 11.7839H78.4577Z" fill="#673A58"/>
<path d="M97.1486 12.2159C97.3886 11.9279 97.6846 11.7839 98.0366 11.7839C98.3566 11.7839 98.6286 11.8959 98.8526 12.1199C99.0766 12.3439 99.1886 12.6159 99.1886 12.9359C99.1886 13.2239 99.1086 13.4559 98.9486 13.6319L98.9246 13.6559L93.1166 21.4799C92.8286 21.8479 92.4606 22.1519 92.0126 22.3919C91.5806 22.6159 91.1086 22.7279 90.5966 22.7279C90.1166 22.7279 89.6606 22.6239 89.2286 22.4159C88.8126 22.2079 88.4606 21.9199 88.1726 21.5519L82.3406 13.7519C82.2446 13.6399 82.1646 13.5199 82.1006 13.3919C82.0366 13.2479 82.0046 13.0959 82.0046 12.9359C82.0046 12.6159 82.1166 12.3439 82.3406 12.1199C82.5646 11.8959 82.8366 11.7839 83.1566 11.7839C83.5406 11.7839 83.8446 11.9359 84.0686 12.2399L89.6606 19.7039C89.7726 19.8319 89.9086 19.9759 90.0686 20.1359C90.2446 20.2799 90.4206 20.3519 90.5966 20.3519C90.7726 20.3519 90.9406 20.2799 91.1006 20.1359C91.2766 19.9759 91.4126 19.8319 91.5086 19.7039L97.1486 12.2159Z" fill="#673A58"/>
<path d="M104.886 22.2479C104.438 22.2479 104.014 22.1679 103.614 22.0079C103.214 21.8319 102.862 21.5999 102.558 21.3119C102.27 21.0239 102.038 20.6879 101.862 20.3039C101.686 19.9199 101.598 19.5039 101.598 19.0559V12.9359C101.598 12.6159 101.71 12.3439 101.934 12.1199C102.158 11.8959 102.43 11.7839 102.75 11.7839C103.054 11.7839 103.318 11.8959 103.542 12.1199C103.782 12.3439 103.902 12.6159 103.902 12.9359V19.0559C103.902 19.2959 103.99 19.5039 104.166 19.6799C104.358 19.8559 104.574 19.9439 104.814 19.9439H119.214C119.534 19.9439 119.806 20.0559 120.03 20.2799C120.254 20.5039 120.366 20.7759 120.366 21.0959C120.366 21.4159 120.254 21.6879 120.03 21.9119C119.806 22.1359 119.534 22.2479 119.214 22.2479H104.886Z" fill="#673A58"/>
<rect width="32" height="32" rx="8" fill="#673A58"/>
<path d="M22.1006 11.4022C22.324 11.1341 22.5996 11 22.9274 11C23.2253 11 23.4786 11.1043 23.6872 11.3128C23.8957 11.5214 24 11.7747 24 12.0726C24 12.3408 23.9255 12.5568 23.7765 12.7207L23.7542 12.743L18.3464 20.0279C18.0782 20.3706 17.7356 20.6536 17.3184 20.8771C16.9162 21.0857 16.4767 21.1899 16 21.1899C15.5531 21.1899 15.1285 21.0931 14.7263 20.8994C14.3389 20.7058 14.0112 20.4376 13.743 20.095L8.31285 12.8324C8.22346 12.7281 8.14898 12.6164 8.08939 12.4972C8.0298 12.3631 8 12.2216 8 12.0726C8 11.7747 8.10428 11.5214 8.31285 11.3128C8.52142 11.1043 8.77467 11 9.07263 11C9.43017 11 9.71322 11.1415 9.92179 11.4246L15.1285 18.3743C15.2328 18.4935 15.3594 18.6276 15.5084 18.7765C15.6723 18.9106 15.8361 18.9777 16 18.9777C16.1639 18.9777 16.3203 18.9106 16.4693 18.7765C16.6331 18.6276 16.7598 18.4935 16.8492 18.3743L22.1006 11.4022Z" fill="#F2EAE0"/>
</svg>
