<svg width="183" height="48" viewBox="0 0 183 48" fill="none" xmlns="http://www.w3.org/2000/svg">
<path d="M84.5161 18.324C84.8761 17.892 85.3201 17.676 85.8481 17.676C86.3281 17.676 86.736 17.844 87.072 18.18C87.408 18.516 87.576 18.924 87.576 19.404C87.576 19.836 87.456 20.184 87.216 20.448L87.18 20.484L78.4681 32.22C78.0361 32.772 77.484 33.228 76.812 33.588C76.1641 33.924 75.4561 34.092 74.6881 34.092C73.9681 34.092 73.284 33.936 72.636 33.624C72.012 33.312 71.484 32.88 71.052 32.328L62.304 20.628C62.16 20.46 62.04 20.28 61.944 20.088C61.848 19.872 61.8 19.644 61.8 19.404C61.8 18.924 61.968 18.516 62.304 18.18C62.64 17.844 63.048 17.676 63.528 17.676C64.104 17.676 64.56 17.904 64.896 18.36L73.284 29.556C73.4521 29.748 73.656 29.964 73.896 30.204C74.16 30.42 74.4241 30.528 74.6881 30.528C74.9521 30.528 75.2041 30.42 75.444 30.204C75.708 29.964 75.9121 29.748 76.056 29.556L84.5161 18.324Z" fill="#F2EAE0"/>
<path d="M117.687 17.676C118.167 17.676 118.575 17.844 118.911 18.18C119.247 18.516 119.415 18.924 119.415 19.404C119.415 19.86 119.259 20.256 118.947 20.592C118.635 20.904 118.263 21.084 117.831 21.132H110.595C109.875 21.18 109.275 21.36 108.795 21.672C108.339 21.96 107.979 22.32 107.715 22.752C107.451 23.184 107.271 23.652 107.175 24.156C107.079 24.66 107.031 25.116 107.031 25.524V31.644C107.031 32.124 106.863 32.532 106.527 32.868C106.191 33.204 105.783 33.372 105.303 33.372C104.823 33.372 104.415 33.204 104.079 32.868C103.743 32.532 103.575 32.124 103.575 31.644V25.524C103.575 24.78 103.671 24.036 103.863 23.292C104.055 22.524 104.343 21.804 104.727 21.132H92.9187C92.4387 21.132 92.0307 20.964 91.6947 20.628C91.3587 20.292 91.1907 19.884 91.1907 19.404C91.1907 18.924 91.3587 18.516 91.6947 18.18C92.0307 17.844 92.4387 17.676 92.9187 17.676H117.687Z" fill="#F2EAE0"/>
<path d="M145.723 18.324C146.083 17.892 146.527 17.676 147.055 17.676C147.535 17.676 147.943 17.844 148.279 18.18C148.615 18.516 148.783 18.924 148.783 19.404C148.783 19.836 148.663 20.184 148.423 20.448L148.387 20.484L139.675 32.22C139.243 32.772 138.691 33.228 138.019 33.588C137.371 33.924 136.663 34.092 135.895 34.092C135.175 34.092 134.491 33.936 133.843 33.624C133.219 33.312 132.691 32.88 132.259 32.328L123.511 20.628C123.367 20.46 123.247 20.28 123.151 20.088C123.055 19.872 123.007 19.644 123.007 19.404C123.007 18.924 123.175 18.516 123.511 18.18C123.847 17.844 124.255 17.676 124.735 17.676C125.311 17.676 125.767 17.904 126.103 18.36L134.491 29.556C134.659 29.748 134.863 29.964 135.103 30.204C135.367 30.42 135.631 30.528 135.895 30.528C136.159 30.528 136.411 30.42 136.651 30.204C136.915 29.964 137.119 29.748 137.263 29.556L145.723 18.324Z" fill="#F2EAE0"/>
<path d="M157.33 33.372C156.658 33.372 156.022 33.252 155.422 33.012C154.822 32.748 154.294 32.4 153.838 31.968C153.406 31.536 153.058 31.032 152.794 30.456C152.53 29.88 152.398 29.256 152.398 28.584V19.404C152.398 18.924 152.566 18.516 152.902 18.18C153.238 17.844 153.646 17.676 154.126 17.676C154.582 17.676 154.978 17.844 155.314 18.18C155.674 18.516 155.854 18.924 155.854 19.404V28.584C155.854 28.944 155.986 29.256 156.25 29.52C156.538 29.784 156.862 29.916 157.222 29.916H178.822C179.302 29.916 179.71 30.084 180.046 30.42C180.382 30.756 180.55 31.164 180.55 31.644C180.55 32.124 180.382 32.532 180.046 32.868C179.71 33.204 179.302 33.372 178.822 33.372H157.33Z" fill="#F2EAE0"/>
<rect width="48" height="48" rx="8" fill="#F2EAE0"/>
<path d="M33.1508 17.1034C33.486 16.7011 33.8994 16.5 34.3911 16.5C34.838 16.5 35.2179 16.6564 35.5307 16.9693C35.8436 17.2821 36 17.662 36 18.1089C36 18.5112 35.8883 18.8352 35.6648 19.081L35.6313 19.1145L27.5196 30.0419C27.1173 30.5559 26.6034 30.9804 25.9777 31.3156C25.3743 31.6285 24.7151 31.7849 24 31.7849C23.3296 31.7849 22.6927 31.6397 22.0894 31.3492C21.5084 31.0587 21.0168 30.6564 20.6145 30.1425L12.4693 19.2486C12.3352 19.0922 12.2235 18.9246 12.1341 18.7458C12.0447 18.5447 12 18.3324 12 18.1089C12 17.662 12.1564 17.2821 12.4693 16.9693C12.7821 16.6564 13.162 16.5 13.6089 16.5C14.1453 16.5 14.5698 16.7123 14.8827 17.1369L22.6927 27.5615C22.8492 27.7402 23.0391 27.9413 23.2626 28.1648C23.5084 28.3659 23.7542 28.4665 24 28.4665C24.2458 28.4665 24.4804 28.3659 24.7039 28.1648C24.9497 27.9413 25.1397 27.7402 25.2737 27.5615L33.1508 17.1034Z" fill="#673A58"/>
</svg>
